<svg width="14" height="12" viewBox="0 0 14 12" fill="none" xmlns="http://www.w3.org/2000/svg">
<path d="M7 2.66667V0H0.333328V12H13.6667V2.66667H7ZM2.99999 10.6667H1.66666V9.33333H2.99999V10.6667ZM2.99999 8H1.66666V6.66667H2.99999V8ZM2.99999 5.33333H1.66666V4H2.99999V5.33333ZM2.99999 2.66667H1.66666V1.33333H2.99999V2.66667ZM5.66666 10.6667H4.33333V9.33333H5.66666V10.6667ZM5.66666 8H4.33333V6.66667H5.66666V8ZM5.66666 5.33333H4.33333V4H5.66666V5.33333ZM5.66666 2.66667H4.33333V1.33333H5.66666V2.66667ZM12.3333 10.6667H7V9.33333H8.33333V8H7V6.66667H8.33333V5.33333H7V4H12.3333V10.6667ZM11 5.33333H9.66666V6.66667H11V5.33333ZM11 8H9.66666V9.33333H11V8Z" fill="#717D8A"/>
</svg>
