<svg width="95" height="95" viewBox="0 0 95 95" fill="none" xmlns="http://www.w3.org/2000/svg">
<path d="M86.9217 65.7016C88.9671 66.6459 91.4088 65.7578 92.1743 63.639C95.6572 53.9986 95.9398 43.4495 92.9144 33.5795C89.4891 22.4046 82.0639 12.885 72.0593 6.84178C62.0547 0.7986 50.1733 -1.34378 38.6881 0.824519C27.2029 2.99282 16.9204 9.31955 9.80769 18.5943C2.69501 27.869 -0.748394 39.4406 0.136251 51.0952C1.0209 62.7497 6.17148 73.669 14.6026 81.7639C23.0337 89.8587 34.1534 94.5609 45.8343 94.9708C56.1512 95.3328 66.266 92.324 74.6733 86.4599C76.5211 85.171 76.7455 82.5826 75.303 80.8521C73.8605 79.1217 71.2984 78.9084 69.428 80.1641C62.5816 84.7604 54.4301 87.1091 46.1204 86.8175C36.4458 86.478 27.2359 82.5835 20.2529 75.8789C13.2698 69.1744 9.00384 60.1305 8.27114 50.4777C7.53844 40.8248 10.3904 31.2407 16.2815 23.559C22.1725 15.8772 30.689 10.6371 40.2016 8.8412C49.7142 7.04531 59.5549 8.81973 67.8411 13.825C76.1274 18.8302 82.2773 26.7148 85.1143 35.9704C87.5511 43.9201 87.3969 52.4018 84.7335 60.206C84.0059 62.3381 84.8764 64.7572 86.9217 65.7016Z" fill="#FFE8D7"/>
<path d="M47.5 4.07914C47.5 1.82629 49.3299 -0.0182102 51.5744 0.174977C61.8145 1.05634 71.5345 5.24195 79.2362 12.1579C87.9535 19.9858 93.4703 30.7593 94.7263 42.4079C95.9823 54.0565 92.8889 65.7584 86.0406 75.2646C79.9901 83.6634 71.3858 89.8248 61.5689 92.8688C59.4171 93.536 57.2361 92.1239 56.7559 89.9228C56.2757 87.7218 57.6803 85.5685 59.8199 84.8631C67.673 82.2738 74.5474 77.2613 79.4211 70.4959C85.0932 62.6224 87.6553 52.9304 86.615 43.2825C85.5747 33.6346 81.0055 24.7115 73.7854 18.2281C67.5816 12.6572 59.7967 9.22524 51.5721 8.36951C49.3314 8.13637 47.5 6.33199 47.5 4.07914Z" fill="#FF513A"/>
<g opacity="0.9">
<path d="M52 54L54.29 51.71L49.41 46.83L45.41 50.83L38 43.41L39.41 42L45.41 48L49.41 44L55.71 50.29L58 48V54H52Z" fill="#FF513A"/>
</g>
</svg>
