<svg width="95" height="95" viewBox="0 0 95 95" fill="none" xmlns="http://www.w3.org/2000/svg">
<path d="M86.9217 65.7016C88.9671 66.6459 91.4088 65.7578 92.1743 63.639C95.6572 53.9986 95.9398 43.4495 92.9144 33.5795C89.4891 22.4046 82.0639 12.885 72.0593 6.84178C62.0547 0.7986 50.1733 -1.34378 38.6881 0.824519C27.2029 2.99282 16.9204 9.31955 9.80769 18.5943C2.69501 27.869 -0.748394 39.4406 0.136251 51.0952C1.0209 62.7497 6.17148 73.669 14.6026 81.7639C23.0337 89.8587 34.1534 94.5609 45.8343 94.9708C56.1512 95.3328 66.266 92.324 74.6733 86.4599C76.5211 85.171 76.7455 82.5826 75.303 80.8521C73.8605 79.1217 71.2984 78.9084 69.428 80.1641C62.5816 84.7604 54.4301 87.1091 46.1204 86.8175C36.4458 86.478 27.2359 82.5835 20.2529 75.8789C13.2698 69.1744 9.00384 60.1305 8.27114 50.4777C7.53844 40.8248 10.3904 31.2407 16.2815 23.559C22.1725 15.8772 30.689 10.6371 40.2016 8.8412C49.7142 7.04531 59.5549 8.81973 67.8411 13.825C76.1274 18.8302 82.2773 26.7148 85.1143 35.9704C87.5511 43.9201 87.3969 52.4018 84.7335 60.206C84.0059 62.3381 84.8764 64.7572 86.9217 65.7016Z" fill="#E6FBD9"/>
<path d="M90.9209 47.5C93.1737 47.5 95.0182 49.3297 94.825 51.5742C94.2194 58.6083 92.0515 65.4371 88.459 71.5544C84.176 78.8472 78.0236 84.8642 70.6374 88.9839C63.2511 93.1035 54.8988 95.1764 46.4434 94.9883C37.9881 94.8001 29.7363 92.3579 22.5405 87.9138C15.3448 83.4697 9.46607 77.185 5.51173 69.7089C1.5574 62.2328 -0.329147 53.8365 0.0470022 45.3874C0.423151 36.9383 3.04835 28.7429 7.65139 21.6478C11.5125 15.6963 16.6477 10.7001 22.666 7.00898C24.5864 5.83114 27.0483 6.6611 28.0571 8.67547C29.0659 10.6898 28.2365 13.1232 26.3374 14.335C21.6085 17.3525 17.5657 21.3556 14.4955 26.088C10.6831 31.9645 8.50876 38.7523 8.19722 45.7503C7.88568 52.7482 9.4482 59.7024 12.7234 65.8944C15.9985 72.0865 20.8675 77.2918 26.8274 80.9726C32.7873 84.6534 39.6218 86.6762 46.6249 86.832C53.628 86.9878 60.5458 85.271 66.6634 81.8589C72.7811 78.4468 77.8768 73.4632 81.4241 67.423C84.2808 62.5588 86.0498 57.1514 86.6304 51.5719C86.8636 49.3312 88.668 47.5 90.9209 47.5Z" fill="#44C13C"/>
<g opacity="0.9">
<path d="M52 42L54.29 44.29L49.41 49.17L45.41 45.17L38 52.59L39.41 54L45.41 48L49.41 52L55.71 45.71L58 48V42H52Z" fill="#2BA52E"/>
</g>
</svg>
