<svg width="16" height="16" viewBox="0 0 16 16" fill="none" xmlns="http://www.w3.org/2000/svg">
<g opacity="0.9">
<path d="M8.00001 1.33333C5.42001 1.33333 3.33334 3.42 3.33334 6C3.33334 9.5 8.00001 14.6667 8.00001 14.6667C8.00001 14.6667 12.6667 9.5 12.6667 6C12.6667 3.42 10.58 1.33333 8.00001 1.33333ZM4.66668 6C4.66668 4.16 6.16001 2.66666 8.00001 2.66666C9.84001 2.66666 11.3333 4.16 11.3333 6C11.3333 7.92 9.41334 10.7933 8.00001 12.5867C6.61334 10.8067 4.66668 7.9 4.66668 6Z" fill="#717D8A"/>
<path d="M8.00001 7.66666C8.92048 7.66666 9.66668 6.92047 9.66668 5.99999C9.66668 5.07952 8.92048 4.33333 8.00001 4.33333C7.07954 4.33333 6.33334 5.07952 6.33334 5.99999C6.33334 6.92047 7.07954 7.66666 8.00001 7.66666Z" fill="#A8B0B9"/>
</g>
</svg>
