<svg width="120" height="27" viewBox="0 0 120 27" fill="none" xmlns="http://www.w3.org/2000/svg">
<path d="M7.424 1.52V20H0.9V1.52H7.424ZM9.91622 20V6H15.7122L15.9922 11.936L15.3482 11.236C15.4789 10.0787 15.7682 9.08933 16.2162 8.268C16.6642 7.44667 17.2616 6.82133 18.0082 6.392C18.7736 5.944 19.6789 5.72 20.7242 5.72C21.6576 5.72 22.4509 5.90667 23.1042 6.28C23.7576 6.63467 24.2522 7.16667 24.5882 7.876C24.9429 8.56667 25.1202 9.416 25.1202 10.424V20H18.6802V12.02C18.6802 11.4227 18.5962 11.0213 18.4282 10.816C18.2602 10.592 18.0082 10.48 17.6722 10.48C17.3736 10.48 17.1216 10.5547 16.9162 10.704C16.7296 10.8347 16.5896 11.0587 16.4962 11.376C16.4029 11.6933 16.3562 12.104 16.3562 12.608V20H9.91622ZM35.9394 6H42.6034L38.0954 20H30.0874L25.5794 6H32.2434L34.0914 15.94L35.9394 6ZM50.4782 20.28C48.7982 20.28 47.3608 20 46.1662 19.44C44.9715 18.8613 44.0568 18.0307 43.4222 16.948C42.7875 15.8653 42.4702 14.5493 42.4702 13C42.4702 11.4507 42.7875 10.1347 43.4222 9.052C44.0755 7.96933 44.9808 7.148 46.1382 6.588C47.3142 6.00933 48.6768 5.72 50.2262 5.72C51.8128 5.72 53.1568 6.00933 54.2582 6.588C55.3782 7.148 56.2275 7.94133 56.8062 8.968C57.3848 9.99467 57.6742 11.1893 57.6742 12.552C57.6742 12.8507 57.6555 13.1587 57.6182 13.476C57.5995 13.7933 57.5715 14.0453 57.5342 14.232H46.6142V11.852H54.7342L51.6822 13.056C51.6822 12.048 51.5888 11.2827 51.4022 10.76C51.2342 10.2373 50.8515 9.976 50.2542 9.976C49.8622 9.976 49.5355 10.0693 49.2742 10.256C49.0315 10.4427 48.8542 10.7693 48.7422 11.236C48.6302 11.684 48.5742 12.3093 48.5742 13.112C48.5742 13.9147 48.6488 14.5307 48.7982 14.96C48.9475 15.3707 49.1622 15.6507 49.4422 15.8C49.7408 15.9307 50.1142 15.996 50.5622 15.996C51.0475 15.996 51.4208 15.8933 51.6822 15.688C51.9622 15.464 52.1488 15.1653 52.2422 14.792L57.4222 16.192C57.2168 17.1067 56.7595 17.872 56.0502 18.488C55.3408 19.0853 54.4915 19.5333 53.5022 19.832C52.5315 20.1307 51.5235 20.28 50.4782 20.28ZM65.6843 20.28C64.3217 20.28 63.0057 20.0933 61.7363 19.72C60.4857 19.3467 59.3937 18.7867 58.4603 18.04L60.7563 14.708C61.2603 15.156 61.923 15.5573 62.7443 15.912C63.5657 16.248 64.387 16.416 65.2083 16.416C65.5257 16.416 65.8057 16.3787 66.0483 16.304C66.3097 16.2293 66.4403 16.0987 66.4403 15.912C66.4403 15.7627 66.3657 15.6507 66.2163 15.576C66.0857 15.5013 65.787 15.4267 65.3203 15.352L64.3123 15.156C62.2777 14.764 60.8403 14.204 60.0003 13.476C59.1603 12.748 58.7403 11.768 58.7403 10.536C58.7403 9.77067 58.983 9.024 59.4683 8.296C59.9723 7.54933 60.7657 6.93333 61.8483 6.448C62.931 5.96267 64.359 5.72 66.1323 5.72C67.5883 5.72 68.895 5.90667 70.0523 6.28C71.2097 6.63467 72.1523 7.12933 72.8803 7.764L70.6683 10.956C70.1457 10.5453 69.4737 10.2187 68.6523 9.976C67.8497 9.71467 67.1123 9.584 66.4403 9.584C66.1417 9.584 65.899 9.60267 65.7123 9.64C65.5257 9.67733 65.3857 9.73333 65.2923 9.808C65.2177 9.864 65.1803 9.93867 65.1803 10.032C65.1803 10.1627 65.2737 10.284 65.4603 10.396C65.647 10.508 66.011 10.6107 66.5523 10.704L68.5403 11.04C70.0523 11.2827 71.1537 11.768 71.8443 12.496C72.5537 13.224 72.9083 14.12 72.9083 15.184C72.9083 16.0987 72.6563 16.948 72.1523 17.732C71.667 18.4973 70.8923 19.1133 69.8283 19.58C68.783 20.0467 67.4017 20.28 65.6843 20.28ZM81.8988 1.24V14.288C81.8988 14.9227 82.0294 15.38 82.2908 15.66C82.5708 15.9213 83.0001 16.052 83.5788 16.052C83.9521 16.052 84.2788 16.024 84.5588 15.968C84.8388 15.912 85.1001 15.8187 85.3428 15.688L85.6228 19.328C85.1561 19.6267 84.5214 19.86 83.7188 20.028C82.9161 20.196 82.1601 20.28 81.4507 20.28C80.1441 20.28 79.0428 20.1213 78.1468 19.804C77.2694 19.468 76.5974 18.936 76.1308 18.208C75.6828 17.48 75.4588 16.5093 75.4588 15.296V3.032L81.8988 1.24ZM85.4268 6V10.34H73.3028V6H85.4268ZM93.3289 0.399999V14.428C93.3289 14.988 93.4129 15.3987 93.5809 15.66C93.7489 15.9213 94.0475 16.052 94.4769 16.052C94.6822 16.052 94.8595 16.0427 95.0089 16.024C95.1769 15.9867 95.3355 15.9493 95.4849 15.912L95.2049 19.384C94.8502 19.6453 94.3369 19.86 93.6649 20.028C93.0115 20.196 92.3675 20.28 91.7329 20.28C89.9969 20.28 88.7555 19.9067 88.0089 19.16C87.2622 18.4133 86.8889 17.1627 86.8889 15.408V0.399999H93.3289ZM111.924 6L107.808 18.432C107.192 20.28 106.501 21.7547 105.736 22.856C104.989 23.976 104.084 24.7787 103.02 25.264C101.974 25.768 100.696 26.02 99.1837 26.02C98.2877 26.02 97.4757 25.936 96.7477 25.768C96.0197 25.6 95.3944 25.376 94.8717 25.096L96.0477 21.036C96.3464 21.204 96.6637 21.3253 96.9997 21.4C97.3544 21.4747 97.8677 21.512 98.5397 21.512C99.1371 21.512 99.5757 21.456 99.8557 21.344C100.154 21.232 100.36 21.036 100.472 20.756L100.556 20.532L98.7917 16.416L94.7877 6H101.816L103.076 13.224L103.608 16.5L104.224 13.196L105.624 6H111.924Z" fill="#0D0D54"/>
<path d="M115.921 14.232C117.022 14.232 117.871 14.4933 118.469 15.016C119.066 15.5387 119.365 16.276 119.365 17.228C119.365 18.18 119.066 18.9173 118.469 19.44C117.871 19.9627 117.022 20.224 115.921 20.224C114.838 20.224 113.989 19.9627 113.373 19.44C112.775 18.9173 112.477 18.18 112.477 17.228C112.477 16.276 112.775 15.5387 113.373 15.016C113.989 14.4933 114.838 14.232 115.921 14.232Z" fill="#4040F2"/>
</svg>
